<?xml version="1.0" encoding="utf-8"?>
<svg version="1.0" width="1280.000000pt" height="640.000000pt" viewBox="0 0 1280.000000 640.000000" preserveAspectRatio="xMidYMid meet" xmlns="http://www.w3.org/2000/svg">
  <g transform="translate(0.000000,640.000000) scale(0.100000,-0.100000)" fill="#F3F3F3" stroke="none">
    <path d="M3423 5990 c-26 -11 -57 -65 -50 -90 4 -15 -5 -18 -53 -23 -86 -9 -110 -21 -110 -54 0 -15 9 -50 21 -78 18 -45 19 -56 9 -94 -11 -43 -30 -66 -102 -122 -31 -25 -46 -28 -219 -44 -103 -9 -195 -15 -205 -13 -15 3 -14 6 9 21 21 13 32 15 46 7 11 -5 36 -10 55 -10 41 0 61 27 51 67 -7 30 4 31 -241 -26 -261 -62 -581 -117 -781 -137 -40 -3 -77 -12 -83 -19 -19 -22 34 -71 110 -102 38 -15 70 -31 70 -35 0 -4 -9 -12 -20 -18 -40 -21 -19 -49 38 -51 24 -1 24 -2 -8 -11 -69 -19 -64 -39 14 -53 l41 -8 -49 -11 c-49 -12 -71 -32 -44 -40 7 -3 31 -8 53 -11 37 -7 38 -8 16 -16 -19 -7 -21 -12 -11 -23 6 -8 21 -16 32 -18 17 -2 2 -19 -74 -85 -619 -536 -931 -1374 -1014 -2718 -4 -72 -12 -120 -22 -137 -16 -27 -19 -28 -100 -28 -395 0 -729 -288 -792 -683 -23 -139 1 -314 60 -452 75 -176 259 -352 437 -418 119 -45 154 -51 288 -51 105 0 145 4 208 22 587 168 787 890 369 1333 -65 70 -188 159 -248 181 -20 7 -39 26 -56 57 -29 51 -28 29 -7 331 6 85 17 207 25 270 8 63 17 135 20 160 41 337 141 738 259 1040 62 160 181 390 273 531 327 497 769 814 1357 974 112 30 142 35 162 26 13 -6 40 -11 60 -11 20 0 34 -2 32 -4 -2 -2 -57 -16 -123 -31 -686 -154 -1280 -610 -1610 -1236 -209 -397 -311 -875 -278 -1309 46 -598 273 -1117 672 -1533 404 -422 923 -677 1499 -738 164 -17 483 -7 640 21 390 68 734 217 1051 454 114 85 328 291 417 401 216 268 391 612 472 928 131 509 101 1039 -85 1515 -87 224 -237 484 -378 657 -86 105 -259 277 -366 364 -359 290 -795 471 -1253 521 -75 8 -94 14 -126 40 -21 16 -65 44 -97 61 -50 26 -66 30 -105 25 -47 -6 -47 -6 -77 40 -42 62 -58 142 -43 209 7 27 18 58 25 68 13 16 16 16 59 -3 62 -28 136 -37 148 -19 15 24 11 27 -48 39 -31 7 -72 19 -89 28 -31 14 -32 17 -18 36 7 11 14 37 14 57 0 29 -7 43 -31 63 -32 27 -58 31 -96 16z m-498 -570 c-256 -77 -544 -208 -728 -332 -54 -37 -60 -39 -100 -30 -23 6 -32 10 -20 11 73 4 70 36 -4 52 l-58 12 46 12 c93 24 88 42 -14 52 -37 3 -67 9 -67 14 0 15 24 15 74 1 28 -8 92 -15 141 -15 81 -1 97 2 150 28 33 16 105 60 161 97 l101 68 159 24 c197 30 242 31 159 6z m705 -49 l55 -26 -68 -3 c-61 -3 -70 0 -87 20 -45 54 -2 58 100 9z m59 -273 l-1 -73 -12 45 c-28 101 -28 100 -6 100 18 0 20 -6 19 -72z m179 62 c53 -6 102 -12 108 -15 8 -2 -1 -79 -31 -249 -23 -135 -43 -248 -46 -250 -2 -2 -46 67 -96 154 l-93 159 0 105 0 106 30 0 c17 0 74 -5 128 -10z m-315 -97 c36 -54 80 -127 98 -162 l32 -64 -12 -481 c-18 -725 -24 -864 -33 -791 -6 46 -104 1020 -155 1533 -3 34 -3 62 0 62 3 0 35 -44 70 -97z m-253 59 c0 -10 27 -272 60 -582 33 -311 59 -573 58 -583 -2 -10 -69 244 -150 565 -81 320 -146 583 -144 585 5 5 130 31 154 32 15 1 22 -5 22 -17z m849 -8 c64 -14 119 -29 124 -33 7 -7 -184 -677 -202 -709 -9 -16 -151 216 -151 246 0 9 18 131 41 270 33 196 45 252 57 252 8 0 67 -12 131 -26z m-872 -702 c161 -645 173 -697 188 -855 9 -93 15 -170 13 -172 -2 -2 -511 1253 -640 1581 l-18 45 28 11 c36 15 234 77 247 77 6 1 87 -308 182 -687z m1109 634 c127 -43 176 -67 169 -85 -21 -59 -371 -799 -376 -796 -3 3 -27 40 -53 85 l-46 80 106 363 c58 199 108 365 111 370 6 10 13 9 89 -17z m-1242 -886 c186 -463 343 -860 349 -883 5 -23 16 -49 23 -57 17 -20 56 -121 49 -128 -3 -3 -7 -3 -9 -1 -10 12 -976 1779 -978 1791 -3 12 191 117 217 118 6 0 163 -378 349 -840z m1649 695 c17 -12 2 -41 -234 -432 -139 -230 -257 -424 -263 -430 -9 -10 -22 6 -57 66 l-46 78 174 374 c96 206 183 393 193 417 l20 44 97 -52 c54 -28 106 -57 116 -65z m-1751 -863 c267 -488 488 -893 490 -901 2 -7 -2 -15 -8 -18 -8 -2 -866 1151 -1212 1628 -11 16 0 26 109 99 67 44 125 80 128 80 3 0 225 -400 493 -888z m1880 779 c40 -27 86 -61 103 -74 l29 -25 -39 -48 c-296 -363 -639 -780 -644 -781 -3 -2 -21 24 -39 58 l-33 60 237 392 c130 216 249 411 263 435 14 23 32 40 38 37 7 -2 46 -27 85 -54z m-1147 -255 l68 -230 -83 -495 c-46 -273 -88 -500 -93 -506 -5 -6 -7 57 -3 165 3 96 11 364 16 595 10 429 20 709 25 703 1 -2 33 -106 70 -232z m-877 -638 c332 -451 602 -822 600 -823 -3 -2 -944 982 -1308 1367 l-104 111 39 35 c88 76 156 132 163 132 4 -1 278 -370 610 -822z m2277 688 l100 -94 -25 -25 c-32 -31 -736 -692 -771 -724 l-27 -24 -37 60 -36 61 343 420 c189 230 345 419 348 420 3 0 50 -42 105 -94z m-1311 -20 c13 -24 16 -43 11 -63 -7 -26 -9 -24 -26 32 -27 88 -22 100 15 31z m-1119 -731 c340 -357 645 -679 679 -714 34 -35 52 -58 40 -50 -42 28 -1564 1263 -1564 1269 0 3 39 50 86 104 l87 98 27 -29 c15 -15 305 -320 645 -678z m1224 552 l70 -117 -27 -90 c-14 -50 -29 -87 -32 -83 -4 5 -27 80 -53 168 -37 126 -45 169 -40 203 3 23 7 41 10 39 2 -2 34 -56 72 -120z m1402 -7 c41 -50 75 -96 76 -103 2 -9 -847 -641 -911 -679 -6 -4 -24 16 -43 48 l-32 54 407 385 c224 211 412 385 418 385 6 0 44 -41 85 -90z m-2743 -657 c850 -688 815 -659 782 -641 -31 18 -1590 962 -1643 995 l-37 24 41 62 c58 85 110 157 115 157 2 0 336 -269 742 -597z m1206 -146 c-63 -214 -122 -403 -132 -421 l-17 -31 -3 56 c-2 36 27 233 83 560 47 278 85 510 86 515 0 5 23 -58 50 -141 l48 -149 -115 -389z m1688 600 c75 -116 91 -148 82 -157 -5 -4 -229 -130 -499 -280 -269 -150 -493 -274 -497 -276 -11 -7 -70 108 -61 117 24 24 909 669 918 669 6 0 31 -33 57 -73z m-1421 -12 c21 -37 39 -71 39 -75 0 -12 -91 -202 -95 -198 -2 2 -15 39 -29 82 l-24 78 24 81 c31 105 33 111 40 104 3 -3 23 -36 45 -72z m-1519 -601 c469 -284 860 -523 868 -532 13 -13 13 -14 -5 -9 -11 2 -418 179 -905 392 -487 213 -900 393 -918 400 l-33 14 52 103 c48 97 78 148 84 148 2 0 387 -232 857 -516z m1617 437 c22 -38 41 -73 41 -76 0 -11 -132 -227 -135 -223 -2 2 -15 37 -28 79 l-24 75 50 107 c28 59 51 107 52 107 2 0 21 -31 44 -69z m1485 -115 c25 -57 46 -108 46 -114 0 -6 -24 -20 -52 -30 -29 -11 -266 -104 -526 -206 -260 -102 -476 -186 -480 -186 -4 0 -19 22 -33 48 l-27 48 502 280 c315 176 505 277 512 272 7 -5 32 -55 58 -112z m-1703 -26 l23 -69 -114 -245 c-62 -135 -115 -245 -116 -243 -2 2 180 627 183 627 1 0 12 -31 24 -70z m312 -20 l26 -46 -85 -104 c-48 -58 -88 -106 -89 -108 -2 -2 -10 18 -18 43 l-16 46 55 92 c98 161 84 153 127 77z m-1779 -432 c507 -220 926 -405 931 -411 6 -6 -3 -7 -25 -2 -28 5 -1258 381 -1807 551 l-112 35 29 82 c44 128 52 147 58 147 3 0 420 -181 926 -402z m1853 308 l30 -53 -107 -102 -108 -101 -17 50 -16 50 86 105 c48 58 90 105 94 105 4 0 21 -24 38 -54z m-330 -32 l22 -65 -72 -119 c-39 -65 -81 -123 -93 -129 -12 -5 -38 -24 -58 -41 -20 -18 -36 -29 -36 -25 0 13 203 445 210 445 3 0 16 -29 27 -66z m1748 -56 c20 -61 35 -111 33 -112 -2 -2 -343 -91 -758 -198 -675 -175 -756 -194 -767 -180 -7 9 -13 21 -13 26 0 6 77 41 171 78 168 66 173 67 207 53 48 -21 55 -19 36 10 -17 26 -17 26 27 43 525 208 1016 398 1021 395 4 -2 23 -54 43 -115z m-1350 -28 c14 -22 25 -44 25 -49 0 -5 -28 -30 -62 -55 -58 -43 -66 -46 -125 -46 -35 0 -63 3 -63 7 0 9 182 182 192 183 4 0 19 -18 33 -40z m-345 -76 c0 -20 -79 -102 -110 -113 -17 -5 -29 -7 -27 -3 2 4 28 47 57 97 l54 89 12 -29 c7 -17 13 -35 14 -41z m-1713 -231 c479 -147 870 -269 868 -271 -1 -2 -303 40 -671 92 -368 53 -770 109 -894 126 -124 17 -230 33 -236 35 -8 2 -9 18 -3 52 16 88 52 233 58 233 3 1 398 -120 878 -267z m2127 193 c14 -25 26 -49 26 -54 0 -4 -35 -3 -77 4 -43 7 -80 13 -82 13 -4 1 100 81 105 81 1 0 14 -20 28 -44z m1344 -98 c35 -174 35 -178 15 -178 -10 0 -352 -41 -761 -90 -408 -50 -749 -90 -758 -90 -16 0 -47 61 -36 72 4 3 122 36 262 72 359 93 756 196 1020 265 124 32 228 57 231 55 4 -2 16 -50 27 -106z m-1738 73 c0 -13 -9 -20 -30 -23 -36 -5 -37 -2 -9 29 24 24 39 22 39 -6z m288 -100 c10 -6 -8 -20 -62 -50 -41 -22 -79 -41 -84 -41 -5 0 -14 17 -20 37 -10 31 -9 38 6 49 19 15 139 19 160 5z m-245 -26 c4 -10 -50 -55 -179 -151 -102 -74 -188 -134 -190 -131 -7 7 282 276 307 286 35 14 56 13 62 -4z m388 -1 l54 -16 -160 -63 c-161 -64 -174 -65 -175 -23 0 21 164 117 201 118 14 0 50 -7 80 -16z m-630 -130 c-158 -150 -188 -170 -102 -66 45 54 174 162 194 162 5 0 -37 -43 -92 -96z m266 61 l11 -35 -136 -76 c-76 -42 -161 -90 -190 -106 -112 -63 -67 -16 109 114 101 75 187 137 190 137 3 1 10 -15 16 -34z m-2337 -64 c1109 -156 1565 -223 1579 -231 10 -6 -212 -10 -599 -10 -338 0 -795 -3 -1014 -7 l-399 -6 6 129 c9 174 13 186 46 180 14 -3 186 -28 381 -55z m2363 -13 c4 -12 5 -23 4 -23 -14 -8 -292 -114 -293 -112 -3 3 268 156 277 157 4 0 9 -10 12 -22z m1691 -157 l7 -124 -238 7 c-131 3 -501 9 -823 12 -322 4 -625 9 -675 13 l-90 6 37 23 c27 17 52 23 105 24 37 1 80 -2 96 -7 21 -6 27 -4 27 9 0 9 3 16 8 17 4 0 349 42 767 93 751 91 760 92 766 72 3 -12 9 -77 13 -145z m-2279 91 c-20 -4 -27 2 -44 43 l-13 30 37 -35 c29 -28 33 -36 20 -38z m605 8 c0 -10 -8 -23 -17 -29 -23 -11 -294 -83 -299 -78 -3 3 291 123 309 126 4 1 7 -8 7 -19z m-130 -104 c-44 -28 -73 -37 -141 -46 -158 -21 -154 -8 11 37 85 23 162 42 170 42 8 1 -10 -14 -40 -33z m150 -6 c0 -5 -12 -10 -27 -10 -22 0 -25 2 -13 10 20 13 40 13 40 0z m-264 -65 c-14 -10 -42 -15 -90 -14 -77 1 -73 5 19 18 90 13 93 13 71 -4z m-551 -25 c-28 -12 -1996 -262 -2004 -254 -7 6 -18 254 -12 260 2 2 461 4 1020 3 570 0 1007 -4 996 -9z m487 -22 c-8 -8 -23 -8 -54 -1 l-43 11 55 1 c41 1 51 -2 42 -11z m1303 -3 c286 -3 557 -8 603 -11 l83 -6 -5 -61 c-3 -34 -8 -97 -12 -141 l-6 -78 -41 6 c-61 10 -1364 201 -1621 238 l-219 32 24 19 c23 19 37 19 349 13 179 -3 559 -8 845 -11z m-1776 1 c-2 -2 -121 -34 -264 -71 -143 -37 -498 -130 -790 -206 -887 -231 -915 -238 -920 -229 -8 13 -46 243 -41 248 3 2 438 60 968 128 530 68 972 125 983 127 29 6 69 8 64 3z m0 -29 c-2 -2 -132 -56 -289 -120 -157 -64 -571 -234 -920 -378 -349 -144 -645 -263 -657 -266 -19 -5 -24 5 -56 103 -19 60 -37 120 -39 134 -3 27 -76 7 1367 381 215 56 435 113 490 128 87 24 119 29 104 18z m919 -62 c208 -31 622 -92 922 -135 300 -44 555 -82 568 -85 15 -4 22 -13 22 -28 0 -22 -47 -237 -53 -243 -2 -2 -404 111 -893 251 -489 141 -906 260 -927 266 -21 5 -35 14 -32 19 8 13 -37 18 393 -45z m-904 36 c5 -7 -1751 -1021 -1769 -1021 -6 0 -80 146 -104 209 l-19 48 471 194 c260 106 681 280 937 385 256 106 468 193 472 193 4 1 9 -3 12 -8z m361 -1 c3 -5 1 -10 -4 -10 -6 0 -11 5 -11 10 0 6 2 10 4 10 3 0 8 -4 11 -10z m1070 -281 c506 -144 922 -264 924 -266 6 -4 -44 -158 -68 -215 l-16 -37 -185 80 c-102 44 -506 218 -897 386 -392 168 -713 310 -713 315 0 5 8 7 18 4 9 -3 431 -123 937 -267z m-1397 232 c-1 -6 -334 -330 -738 -720 l-735 -711 -49 52 c-56 60 -131 157 -125 162 34 31 1634 1226 1641 1226 5 0 8 -4 6 -9z m1337 -381 c490 -210 892 -383 894 -385 2 -2 -24 -57 -56 -122 -40 -79 -64 -118 -75 -117 -14 1 -1651 960 -1685 987 -17 12 -5 30 16 24 9 -2 417 -177 906 -387z m-1405 376 c0 -5 -1584 -1196 -1591 -1196 -7 0 -67 89 -110 162 l-28 48 47 27 c71 42 1677 962 1680 962 1 1 2 -1 2 -3z m1348 -543 c653 -384 811 -481 808 -496 -6 -23 -129 -207 -139 -207 -13 0 -1567 1211 -1567 1221 0 6 19 -1 43 -15 23 -14 408 -241 855 -503z m-1260 470 c-3 -33 -1036 -1722 -1053 -1722 -18 -1 -200 139 -200 153 0 21 1239 1616 1248 1606 5 -4 7 -21 5 -37z m214 25 c-6 -6 -15 -8 -19 -4 -4 4 -1 11 7 16 19 12 27 3 12 -12z m914 -603 c428 -333 779 -612 779 -620 0 -20 -165 -207 -179 -203 -17 4 -1390 1397 -1394 1414 -2 8 1 14 6 14 5 0 359 -272 788 -605z m393 -647 l195 -197 -20 -22 c-10 -11 -56 -53 -102 -92 -64 -54 -86 -67 -95 -58 -37 37 -1194 1577 -1190 1584 3 5 233 -222 511 -505 278 -282 594 -602 701 -710z m-1639 1163 c-17 -22 -283 -365 -591 -763 -308 -398 -564 -725 -570 -726 -14 -5 -201 168 -197 183 3 10 1378 1345 1386 1345 2 0 -10 -18 -28 -39z m1021 -776 c316 -418 578 -765 582 -772 9 -15 -220 -170 -232 -157 -13 15 -961 1720 -961 1729 0 10 -66 96 611 -800z m-141 -85 c259 -465 472 -849 473 -855 3 -13 -225 -127 -235 -117 -5 5 -400 944 -718 1709 -36 85 -37 93 -23 113 12 18 18 19 23 9 5 -8 220 -394 480 -859z m-738 823 c4 -28 -19 -122 -80 -338 -47 -165 -87 -302 -88 -304 -5 -6 -125 41 -122 49 70 168 275 630 279 630 4 0 9 -17 11 -37z m443 -573 c125 -300 292 -700 372 -889 104 -249 140 -347 131 -352 -26 -16 -237 -83 -243 -77 -4 4 -55 190 -115 415 -380 1437 -387 1464 -376 1452 2 -2 106 -249 231 -549z m-626 268 c-65 -150 -123 -274 -129 -276 -29 -10 -133 -97 -164 -138 -40 -52 -41 -50 26 -113 l28 -26 -198 -452 c-177 -408 -199 -452 -217 -447 -30 9 -215 114 -215 122 0 9 -35 -49 512 840 258 419 471 762 473 762 1 0 -51 -123 -116 -272z m381 246 c0 -3 65 -251 144 -552 80 -301 188 -713 242 -915 53 -202 94 -370 90 -374 -8 -8 -224 -53 -256 -53 l-26 0 -27 223 c-15 122 -66 537 -113 923 -49 395 -84 712 -80 727 5 23 26 39 26 21z m-181 -81 c3 -65 -71 -567 -86 -585 -8 -9 -23 -18 -35 -21 -21 -6 -21 -6 -2 54 4 10 -4 20 -21 27 -15 7 -25 18 -23 25 3 6 38 130 79 274 41 145 77 263 80 263 3 0 7 -17 8 -37z m247 -906 c61 -496 108 -905 105 -910 -4 -4 -67 -10 -140 -14 l-133 -6 7 679 c4 394 11 700 17 729 6 28 12 131 13 230 2 99 3 186 4 194 5 64 30 -117 127 -902z m-245 553 c-10 -92 -40 -207 -48 -183 -4 12 32 284 45 338 6 28 7 27 10 -15 2 -24 -1 -87 -7 -140z m63 -1089 l-6 -394 -89 6 c-175 13 -199 18 -199 40 0 11 34 259 76 551 69 480 78 532 97 546 42 30 117 110 119 127 7 51 8 -534 2 -876z m-2752 813 l37 -6 -5 -47 c-20 -166 -71 -422 -83 -421 -3 1 -22 21 -42 46 -35 44 -36 47 -53 207 -9 89 -19 174 -22 189 -5 23 -2 27 23 31 47 7 106 7 145 1z m-168 -175 c9 -89 15 -164 12 -166 -4 -4 -208 240 -214 256 -1 4 23 19 55 33 75 33 84 36 109 37 19 1 22 -8 38 -160z m366 121 c12 -8 12 -16 -5 -62 -38 -106 -75 -192 -71 -163 39 241 41 247 76 225z m107 -66 c44 -31 61 -49 55 -57 -155 -200 -259 -325 -279 -336 -24 -12 -25 -12 -18 5 9 23 154 404 160 422 7 18 12 16 82 -34z m2212 -491 c-43 -296 -79 -544 -79 -552 0 -10 -10 -12 -42 -7 -66 11 -212 47 -221 56 -10 9 270 990 288 1009 14 14 64 28 106 30 l26 1 -78 -537z m-2782 366 c115 -141 120 -149 127 -204 3 -32 5 -60 2 -62 -2 -3 -90 66 -196 152 l-191 157 23 26 c29 32 99 83 109 80 4 -2 61 -69 126 -149z m2626 133 c41 -2 67 -9 67 -16 0 -6 -63 -227 -138 -491 l-138 -480 -30 1 c-47 2 -249 88 -246 105 2 8 89 213 195 457 152 351 195 441 207 436 8 -4 45 -9 83 -12z m-1937 -124 c76 -98 85 -83 -104 -170 -92 -41 -168 -74 -170 -73 -4 4 221 293 228 294 3 1 24 -23 46 -51z m-754 -146 c103 -84 190 -158 194 -163 8 -14 -15 -39 -36 -39 -18 0 -438 185 -453 200 -13 12 -1 42 44 110 26 38 45 57 52 53 7 -4 96 -76 199 -161z m859 -50 c12 -35 19 -65 17 -67 -2 -3 -80 -9 -174 -15 -93 -6 -191 -12 -217 -14 -27 -2 -44 1 -40 5 5 5 91 47 193 93 133 62 186 82 192 73 4 -7 17 -40 29 -75z m-958 -63 c111 -50 205 -94 210 -98 4 -4 -26 -17 -66 -30 l-74 -22 -144 41 c-79 23 -152 43 -161 46 -10 3 -18 13 -18 22 0 29 32 132 42 132 5 0 100 -41 211 -91z m370 -20 c-4 -14 -42 -34 -50 -26 -1 2 -5 30 -9 63 l-6 59 35 -39 c20 -23 32 -47 30 -57z m615 -96 l3 -81 -63 -6 c-35 -3 -141 -7 -237 -10 -160 -4 -175 -2 -192 15 -26 26 -25 84 2 117 20 27 24 27 197 38 98 6 202 11 232 10 l55 -1 3 -82z m-505 42 c-3 -9 -8 -14 -10 -11 -3 3 -2 9 2 15 9 16 15 13 8 -4z m-591 -42 c76 -21 138 -40 138 -43 0 -8 -268 -95 -274 -89 -9 9 -19 169 -11 169 5 0 70 -17 147 -37z m369 -6 c-1 -4 -1 -16 -1 -27 0 -31 -32 -42 -89 -28 -28 6 -51 14 -51 18 0 7 121 49 133 46 5 -1 8 -5 8 -9z m-124 -63 c32 -9 51 -20 46 -25 -5 -5 -87 -58 -183 -119 -155 -97 -176 -108 -187 -93 -16 21 -57 143 -50 149 5 6 295 101 310 103 5 1 34 -6 64 -15z m136 -8 c4 -10 1 -13 -8 -9 -8 3 -12 9 -9 14 7 12 11 11 17 -5z m12 -36 c15 -6 25 -16 23 -23 -3 -6 -87 -85 -188 -174 -177 -157 -184 -162 -203 -146 -33 30 -92 116 -82 120 6 2 93 57 195 123 190 122 193 123 255 100z m694 -32 c-15 -67 -40 -138 -49 -138 -4 0 -77 32 -162 71 -84 39 -164 76 -178 82 -25 12 36 17 326 25 l72 2 -9 -42z m-397 -203 c80 -199 87 -221 72 -232 -20 -15 -144 -57 -149 -51 -3 2 -38 100 -79 218 -73 207 -75 214 -59 241 21 35 49 49 92 46 l35 -2 88 -220z m198 -59 l45 -48 -30 -25 c-17 -14 -48 -38 -69 -54 l-40 -30 -83 208 c-46 114 -83 212 -83 216 0 9 148 -144 260 -267z m-49 193 c96 -44 178 -84 183 -89 9 -9 -5 -36 -51 -98 l-25 -34 -35 34 c-53 51 -256 268 -250 268 2 0 83 -36 178 -81z m-417 -11 c-36 -70 -216 -358 -224 -358 -10 0 -128 79 -135 90 -3 5 77 81 177 169 142 126 184 158 190 146 6 -9 2 -27 -8 -47z m101 -211 c36 -102 65 -190 65 -195 0 -10 -70 -22 -128 -22 l-35 0 7 128 c8 165 18 283 23 279 2 -2 32 -87 68 -190z m-104 -9 c-6 -81 -11 -160 -11 -174 0 -25 -2 -26 -37 -21 -64 11 -143 37 -143 48 0 6 44 83 98 172 63 105 98 155 100 143 2 -10 -1 -86 -7 -168z" style="opacity: 0.25;"/>
    <path d="M11055 4305 c-31 -31 -31 -46 0 -75 14 -13 25 -32 25 -42 0 -16 -9 -18 -77 -18 -113 0 -253 -43 -274 -83 -11 -20 -9 -20 100 -15 65 3 108 2 105 -3 -5 -9 -118 -69 -129 -69 -3 0 -5 9 -5 19 0 29 -13 32 -63 15 -71 -24 -72 -27 -29 -146 57 -156 67 -195 53 -212 -8 -9 -8 -21 -2 -39 l10 -25 -287 -116 c-158 -63 -550 -221 -871 -350 -321 -130 -585 -235 -586 -233 -1 1 -14 56 -30 122 -33 147 -48 184 -70 182 -13 -2 -27 34 -69 183 -88 308 -115 387 -143 420 -14 17 -24 32 -22 34 2 2 45 26 94 52 l90 49 121 0 c130 0 154 8 154 50 0 32 -50 71 -112 90 -67 19 -157 19 -277 -2 -85 -14 -120 -15 -309 -4 -204 11 -214 11 -257 -8 -117 -52 -63 -171 77 -171 54 0 64 -4 100 -34 37 -32 121 -62 140 -50 4 3 20 -9 35 -26 19 -21 39 -31 61 -33 l32 -2 41 -130 c66 -208 129 -419 129 -433 0 -7 -5 -20 -11 -31 -10 -14 -1 -52 44 -196 l56 -178 -27 -21 c-14 -12 -85 -67 -156 -122 l-131 -101 -70 64 c-126 115 -292 214 -448 266 -136 46 -238 61 -402 61 -214 -1 -363 -37 -550 -131 -125 -63 -205 -121 -316 -232 -140 -139 -241 -301 -298 -479 -47 -144 -56 -212 -55 -402 1 -193 18 -281 84 -446 127 -319 400 -580 728 -698 246 -88 555 -92 802 -9 353 118 647 401 769 739 l22 61 167 -39 c92 -21 174 -41 182 -45 8 -3 20 -5 26 -4 6 0 17 -6 24 -14 10 -12 16 -13 26 -4 12 10 14 -9 14 -114 l0 -126 -57 -3 -58 -3 0 -40 0 -40 166 -3 c184 -3 194 0 183 57 -6 28 -10 31 -44 31 -67 0 -66 -2 -60 128 5 125 12 151 35 132 17 -14 35 -5 35 17 0 12 3 13 15 3 19 -16 38 -3 32 22 -5 17 -2 18 25 13 29 -7 30 -6 26 18 -4 21 -1 27 16 29 16 2 21 10 19 29 -1 19 3 26 15 25 13 -1 17 6 15 27 -1 15 3 27 9 27 6 0 8 11 5 27 -3 18 0 31 10 38 13 10 13 13 -2 29 -17 16 -17 18 0 30 19 14 13 36 -11 36 -17 0 -18 12 -3 27 8 8 5 14 -10 22 -16 9 -20 18 -15 36 5 22 3 25 -19 25 -24 0 -26 3 -23 36 3 28 37 78 172 252 323 415 750 968 827 1069 95 126 168 200 221 224 53 24 72 13 80 -48 15 -103 64 -203 101 -203 7 0 30 -46 52 -107 l40 -108 -86 -45 c-367 -191 -604 -530 -660 -943 -65 -475 175 -959 600 -1213 314 -187 727 -219 1074 -83 389 151 666 479 762 901 23 102 23 384 0 486 -58 254 -163 449 -337 623 -181 182 -394 296 -648 346 -155 30 -398 21 -558 -23 -20 -5 -25 3 -52 88 -17 51 -33 125 -36 163 -8 102 -22 140 -70 189 -44 45 -43 45 -116 293 -16 58 -26 76 -48 87 -19 10 -31 27 -39 58 -6 23 -14 50 -18 59 -5 12 31 40 149 118 168 110 206 151 206 222 0 42 -36 103 -76 129 -38 26 -50 25 -79 -5z m-2573 -421 c32 -9 58 -21 58 -25 0 -24 -129 3 -138 29 -5 16 10 15 80 -4z m2092 -533 c7 -11 -5 -28 -598 -829 -361 -488 -495 -662 -509 -662 -19 0 -20 5 -13 92 3 50 6 129 6 175 l0 83 54 0 c47 0 54 3 60 23 16 61 14 63 -86 71 -131 9 -206 8 -229 -4 -14 -8 -19 -21 -19 -50 l0 -40 50 0 50 0 0 -165 c0 -138 -2 -165 -15 -165 -9 0 -21 24 -34 68 -133 453 -220 767 -214 773 5 3 208 95 453 202 1034 455 1029 453 1044 428z m-2984 -868 c0 -152 -2 -274 -4 -272 -9 9 -186 512 -182 516 5 5 140 31 169 32 16 1 17 -18 17 -276z m149 -35 l0 -313 -33 -84 -33 -85 -31 88 -32 87 0 310 0 309 65 0 65 0 -1 -312z m159 290 c28 -6 52 -14 52 -17 1 -12 -185 -511 -190 -511 -3 0 -4 124 -2 276 l3 276 42 -7 c23 -3 66 -11 95 -17z m3582 -255 l-1 -278 -94 260 c-52 143 -95 261 -95 261 0 1 26 6 58 12 31 7 66 13 77 16 59 12 55 32 55 -271z m150 -35 l0 -312 -31 -83 c-18 -46 -33 -82 -35 -81 -1 2 -16 41 -33 87 l-31 85 0 308 0 308 65 0 65 0 0 -312z m158 290 c28 -6 52 -16 52 -22 0 -12 -179 -498 -186 -505 -2 -2 -4 121 -4 273 l0 278 43 -7 c23 -3 66 -11 95 -17z m-4302 -304 l103 -279 0 -100 0 -100 -50 55 c-27 30 -56 67 -64 82 -25 45 -216 580 -210 587 10 9 99 40 109 37 6 -1 56 -128 112 -282z m548 265 c31 -12 56 -25 56 -28 0 -4 -47 -134 -104 -289 -100 -270 -107 -284 -162 -349 -31 -38 -60 -69 -63 -71 -3 -1 -3 46 0 105 6 106 7 113 101 363 113 299 109 290 113 290 2 0 28 -10 59 -21z m3891 0 c30 -11 55 -25 55 -31 0 -27 -203 -557 -226 -588 -13 -19 -42 -55 -64 -80 l-39 -45 -1 94 0 95 107 288 c58 158 107 288 109 288 2 0 28 -9 59 -21z m-4586 -296 c50 -138 91 -254 91 -258 0 -3 -81 90 -180 207 -99 117 -180 216 -180 219 0 11 164 99 171 91 4 -4 48 -120 98 -259z m874 210 c38 -23 56 -40 53 -49 -6 -16 -340 -413 -344 -410 -1 2 38 113 88 247 50 134 92 250 95 257 5 15 14 11 108 -45z m3018 -208 c53 -146 95 -265 94 -265 -4 0 -360 420 -362 428 -2 4 12 16 30 26 65 39 132 76 137 76 3 0 48 -119 101 -265z m922 180 c17 -12 5 -29 -149 -212 -91 -109 -173 -205 -181 -213 -14 -15 -7 6 114 332 l66 178 66 -36 c36 -19 74 -42 84 -49z m-3193 71 c0 -2 53 -172 119 -378 65 -205 121 -383 125 -395 l7 -23 -155 0 c-86 0 -156 2 -156 4 0 2 -7 41 -16 86 -28 149 -92 305 -181 444 -24 37 -42 71 -39 74 12 12 282 191 289 191 4 1 7 -1 7 -3z m2429 -253 c50 -138 91 -264 90 -279 0 -16 -41 90 -90 236 -104 308 -103 307 -96 300 3 -3 47 -119 96 -257z m-4137 -78 c106 -126 197 -235 200 -241 4 -5 20 -47 37 -93 l30 -82 -67 37 c-37 20 -75 43 -85 50 -10 6 -108 117 -217 245 l-198 234 46 42 c26 23 50 41 53 40 4 -1 94 -105 201 -232z m1107 183 c37 -32 42 -21 -59 -142 -48 -57 -110 -111 -234 -204 -211 -158 -198 -150 -184 -110 12 36 23 51 251 321 174 207 155 195 226 135z m2802 -203 c175 -207 188 -225 217 -305 17 -46 30 -85 29 -86 -1 -2 -38 18 -82 43 -76 44 -90 58 -275 277 -107 127 -195 236 -195 242 0 6 20 28 45 49 43 36 45 36 60 18 8 -10 99 -118 201 -238z m1081 211 c21 -17 38 -34 38 -38 0 -14 -393 -473 -419 -488 -14 -9 -52 -31 -83 -49 l-58 -32 24 64 c14 35 30 78 38 95 20 48 398 493 411 485 7 -4 29 -21 49 -37z m-5137 -247 c206 -245 202 -239 139 -203 -28 16 -136 78 -241 139 l-191 109 18 26 c29 41 101 120 108 119 4 0 79 -86 167 -190z m1322 174 c2 -6 -20 -28 -49 -49 -93 -69 -94 -65 -4 34 30 32 46 36 53 15z m2582 -190 c94 -111 171 -205 171 -207 0 -8 -464 261 -467 271 -4 11 107 145 117 141 5 -2 85 -94 179 -205z m1355 140 c31 -37 55 -72 53 -77 -3 -9 -468 -279 -472 -274 -5 5 346 418 355 418 5 0 34 -30 64 -67z m-3846 -55 c7 -7 12 -15 12 -19 0 -7 -447 -268 -475 -278 -5 -2 -3 4 5 12 21 23 423 296 436 296 5 1 15 -4 22 -11z m-1445 -193 c243 -139 262 -152 318 -217 33 -39 58 -72 56 -75 -3 -2 -44 3 -93 12 -83 16 -101 25 -351 168 -144 84 -263 154 -263 157 0 13 62 110 68 107 4 -2 123 -71 265 -152z m1504 103 c24 -41 29 -56 20 -64 -7 -7 -127 -77 -267 -158 -236 -135 -261 -147 -338 -161 -46 -9 -88 -15 -92 -13 -5 2 16 34 48 71 54 64 72 77 322 222 146 84 267 154 270 154 3 1 19 -23 37 -51z m2385 -100 c252 -146 267 -156 327 -225 34 -40 56 -73 49 -73 -29 0 -171 31 -191 41 -27 14 -511 290 -516 295 -3 3 58 114 63 114 2 0 122 -69 268 -152z m1508 96 c18 -30 31 -57 29 -58 -2 -2 -122 -71 -267 -154 -252 -145 -266 -152 -353 -168 -49 -9 -92 -15 -94 -13 -2 2 23 35 55 72 55 65 74 78 327 223 147 85 269 154 270 154 1 0 16 -25 33 -56z m-5499 -211 c132 -75 238 -137 237 -139 -4 -3 -538 93 -544 98 -2 3 7 36 21 74 15 38 29 77 32 87 3 9 8 17 10 17 3 0 113 -61 244 -137z m1681 58 c16 -41 28 -81 26 -89 -2 -12 -63 -26 -268 -63 -146 -26 -266 -46 -268 -44 -5 4 462 273 472 271 5 -1 22 -35 38 -75z m2231 -69 c120 -68 216 -126 215 -127 -2 -2 -124 19 -273 46 -148 27 -271 49 -272 49 -4 0 48 142 59 163 11 21 -15 33 271 -131z m1671 42 l25 -74 -22 -5 c-51 -12 -522 -93 -525 -91 -1 2 105 64 235 139 271 156 246 153 287 31z m-4894 -126 c0 -9 -3 -24 -6 -33 -6 -14 -8 -14 -25 1 -16 14 -19 31 -18 98 l0 81 24 -65 c14 -36 25 -73 25 -82z m64 -26 l-17 -25 -13 24 c-11 22 -9 35 14 100 l27 74 3 -74 c2 -55 -1 -79 -14 -99z m3805 106 c21 -63 28 -120 12 -102 -22 24 -54 164 -37 164 2 0 14 -28 25 -62z m85 -109 c-14 -15 -19 -17 -26 -7 -13 21 -9 53 15 115 l22 58 3 -74 c2 -58 -1 -77 -14 -92z m-3763 109 c-4 -12 -23 -33 -42 -47 l-34 -26 20 25 c29 38 58 70 61 70 2 0 0 -10 -5 -22z m3873 -55 c-19 -50 -33 -74 -50 -82 -22 -10 -24 -9 -24 18 0 20 15 47 47 85 26 30 48 54 50 52 2 -1 -9 -34 -23 -73z m-4176 13 c25 -32 42 -64 42 -79 0 -24 -2 -26 -24 -16 -17 8 -31 31 -49 80 -13 38 -21 69 -18 69 3 -1 25 -25 49 -54z m-620 -52 c141 -25 273 -48 292 -51 32 -5 149 -63 194 -96 17 -12 9 -15 -73 -29 l-91 -15 -307 55 c-170 30 -309 55 -310 56 -7 5 22 126 29 126 5 0 125 -21 266 -46z m1765 32 c3 -7 9 -34 12 -60 l7 -46 -164 0 c-91 0 -241 -3 -334 -6 -131 -5 -166 -4 -158 5 9 10 557 117 615 120 9 1 19 -5 22 -13z m2162 -37 c273 -48 294 -54 365 -91 116 -62 115 -61 15 -79 l-89 -16 -299 53 c-165 30 -304 54 -310 54 -10 0 -3 103 9 121 7 12 -15 15 309 -42z m1741 -14 c7 -33 12 -61 11 -61 -1 -1 -142 -26 -313 -56 l-310 -55 -90 16 -89 17 75 43 c41 24 79 46 85 49 15 9 577 110 600 109 15 -2 22 -14 31 -62z m-5136 18 c77 -46 113 -109 48 -84 -21 8 -128 121 -114 121 2 0 32 -17 66 -37z m444 -27 c-32 -38 -55 -56 -71 -56 -28 0 -29 10 -5 39 17 22 114 82 121 76 2 -2 -18 -29 -45 -59z m3525 -39 c10 -26 9 -27 -17 -21 -24 5 -121 98 -122 116 0 4 29 -10 65 -30 44 -25 68 -46 74 -65z m374 47 c-43 -50 -88 -82 -100 -70 -2 2 -1 14 2 27 4 16 28 37 68 61 34 20 66 37 70 37 5 1 -13 -24 -40 -55z m-4124 -38 c-14 -15 -22 0 -13 26 7 22 7 22 14 3 4 -11 4 -24 -1 -29z m3897 -3 c-11 -12 -27 13 -20 32 7 17 8 17 17 -3 6 -12 7 -25 3 -29z m-3942 -5 c-11 -17 -24 -6 -24 19 0 26 1 26 14 8 8 -11 12 -23 10 -27z m3992 -5 c-2 -3 -9 -2 -15 2 -8 4 -7 13 1 28 l13 22 3 -23 c2 -13 1 -26 -2 -29z m-4036 -18 c0 -20 -27 -8 -33 16 -4 16 -2 17 14 8 10 -5 19 -16 19 -24z m4093 16 c-6 -24 -33 -36 -33 -16 0 11 22 32 37 35 0 0 -1 -9 -4 -19z m-4234 -19 c19 -4 40 -17 48 -29 14 -21 13 -23 -9 -28 -18 -5 -43 5 -94 35 l-69 41 45 -6 c25 -4 61 -10 79 -13z m558 12 c-3 -3 -12 -4 -19 -1 -8 3 -5 6 6 6 11 1 17 -2 13 -5z m3299 -5 c80 -16 119 -50 74 -64 -14 -4 -44 7 -93 34 -77 43 -74 48 19 30z m537 -30 c-54 -30 -78 -38 -98 -33 l-26 6 21 23 c14 15 41 26 78 33 96 16 99 13 25 -29z m-4804 -55 c85 -15 149 -30 143 -32 -5 -1 -131 -25 -279 -51 l-268 -48 -7 36 c-4 20 -5 66 -2 102 l6 66 126 -23 c70 -12 196 -35 281 -50z m2138 64 c-2 -7 -14 -12 -25 -10 -19 3 -22 -2 -22 -28 0 -27 -3 -31 -22 -28 -20 3 -23 -1 -20 -29 2 -28 -1 -33 -19 -33 -16 0 -20 -5 -16 -20 5 -19 0 -20 -69 -20 l-74 0 0 63 c0 34 -3 72 -6 84 -6 20 -2 22 52 26 149 9 226 7 221 -5z m1638 -43 c227 -41 294 -55 259 -55 -11 0 -498 -87 -531 -95 -23 -5 -23 -4 -23 100 0 97 2 106 18 101 9 -3 134 -26 277 -51z m-3271 39 c9 -3 16 -10 16 -15 0 -14 -26 -10 -40 6 -13 16 -3 20 24 9z m973 0 c-3 -3 -99 -23 -214 -44 l-208 -37 -87 15 c-49 9 -88 18 -88 22 0 4 12 13 28 21 20 10 90 15 277 19 138 3 261 7 274 8 13 1 22 -1 18 -4z m203 -70 l0 -76 -77 6 c-43 4 -145 11 -228 16 -82 5 -175 16 -205 23 l-55 13 100 18 c55 10 168 31 250 46 83 16 165 29 183 29 l32 1 0 -76z m2714 70 c9 -3 16 -10 16 -15 0 -14 -26 -10 -40 6 -13 16 -3 20 24 9z m286 -9 c-14 -16 -40 -20 -40 -6 0 10 17 19 39 20 11 1 11 -2 1 -14z m890 -85 c0 -99 0 -100 -22 -95 -13 3 -138 26 -278 51 -140 25 -256 47 -258 49 -2 1 30 9 70 15 40 7 152 27 248 45 96 18 190 34 208 34 l32 1 0 -100z m-5020 80 c0 -5 -2 -10 -4 -10 -3 0 -8 5 -11 10 -3 6 -1 10 4 10 6 0 11 -4 11 -10z m340 1 c0 -17 -55 -32 -81 -22 -28 10 -16 18 41 24 19 2 36 5 38 5 1 1 2 -2 2 -7z m-113 -7 c-3 -3 -12 -4 -19 -1 -8 3 -5 6 6 6 11 1 17 -2 13 -5z m3915 -47 c-24 -11 -38 -5 -28 11 3 6 16 8 28 4 l22 -5 -22 -10z m-4192 3 c0 -13 -20 -13 -40 0 -12 8 -9 10 13 10 15 0 27 -4 27 -10z m305 0 c-3 -5 -13 -10 -21 -10 -8 0 -14 5 -14 10 0 6 9 10 21 10 11 0 17 -4 14 -10z m3585 0 c0 -13 -20 -13 -40 0 -12 8 -9 10 13 10 15 0 27 -4 27 -10z m-3945 -14 c19 -14 19 -15 -6 -26 -21 -10 -43 -9 -100 1 l-74 13 55 12 c76 16 103 16 125 0z m521 -6 c25 -7 20 -8 -27 -9 -70 -1 -121 8 -113 21 7 11 90 3 140 -12z m3376 6 c16 -12 16 -14 -7 -26 -21 -11 -37 -11 -97 0 l-73 14 50 12 c66 16 106 16 127 0z m483 2 c67 -13 56 -22 -42 -33 -46 -6 -61 -4 -71 8 -11 13 -10 17 5 26 23 13 38 13 108 -1z m-4500 -42 l70 -12 -71 -41 c-39 -23 -81 -46 -95 -52 -29 -13 -608 -115 -615 -109 -6 7 -28 118 -23 122 10 9 570 104 614 104 28 1 82 -5 120 -12z m173 3 c-2 -6 -7 -10 -11 -10 -4 1 -15 1 -24 1 -15 0 -16 2 -3 10 20 13 43 13 38 -1z m3712 -1 c38 -7 70 -15 70 -18 0 -3 -40 -26 -88 -51 -86 -46 -92 -48 -385 -99 -164 -29 -300 -51 -302 -48 -4 4 -24 122 -21 124 10 7 574 102 608 103 26 0 79 -4 118 -11z m180 2 c0 -5 -12 -10 -27 -10 -22 0 -25 2 -13 10 20 13 40 13 40 0z m310 0 c13 -8 12 -10 -2 -10 -10 0 -21 0 -25 -1 -4 0 -9 4 -11 10 -5 14 18 14 38 1z m568 -41 c158 -28 290 -54 293 -58 4 -3 2 -33 -3 -66 l-10 -61 -307 56 c-287 52 -310 58 -376 94 -107 59 -107 59 -39 72 101 19 147 16 442 -37z m-4799 5 c12 -11 -35 -42 -72 -48 -23 -4 -58 -9 -77 -12 -32 -5 -30 -3 30 34 46 29 72 39 90 35 14 -2 27 -6 29 -9z m3889 6 c12 0 11 -4 -6 -23 -15 -16 -43 -27 -88 -36 -37 -6 -68 -10 -71 -8 -7 8 122 76 135 72 8 -3 21 -5 30 -5z m447 -30 c39 -22 63 -40 54 -40 -39 0 -136 23 -151 37 -27 24 -23 33 22 42 3 0 37 -17 75 -39z m-4285 11 c0 -9 -24 -21 -42 -21 -6 0 -6 6 2 15 14 16 40 20 40 6z m30 -1 c0 -5 -5 -10 -11 -10 -5 0 -7 5 -4 10 3 6 8 10 11 10 2 0 4 -4 4 -10z m238 -8 c3 -9 -2 -13 -14 -10 -9 1 -19 9 -22 16 -3 9 2 13 14 10 9 -1 19 -9 22 -16z m131 -7 c30 -14 52 -28 49 -31 -12 -11 -137 18 -154 37 -17 18 -16 19 17 19 19 0 58 -11 88 -25z m3489 13 c-3 -7 -15 -15 -28 -16 -21 -3 -22 -2 -11 12 16 19 44 21 39 4z m273 -4 c11 -14 10 -15 -11 -12 -13 1 -25 9 -28 16 -5 17 23 15 39 -4z m-3281 -54 c146 -18 266 -33 267 -34 1 -1 0 -19 -4 -39 -4 -25 -11 -37 -22 -37 -9 0 -149 24 -311 54 -239 44 -304 59 -342 81 -27 15 -48 28 -48 29 0 1 44 -3 98 -10 53 -7 216 -26 362 -44z m-850 25 c0 -8 -9 -19 -20 -25 -24 -13 -27 2 -4 24 19 20 24 20 24 1z m3880 -20 c-7 -8 -16 -15 -21 -15 -11 0 1 33 15 42 16 11 20 -10 6 -27z m211 4 c10 -19 9 -20 -10 -9 -12 6 -21 18 -21 26 0 19 16 10 31 -17z m-4150 -17 c-9 -16 -122 -92 -138 -92 -16 0 101 119 120 122 27 4 32 -5 18 -30z m3898 11 c-6 -19 -31 -40 -72 -65 -34 -20 -64 -35 -66 -33 -8 8 94 114 113 118 12 2 24 5 28 6 4 0 3 -11 -3 -26z m368 -42 c28 -31 50 -57 48 -59 -1 -1 -32 15 -68 35 -46 26 -70 47 -76 66 -10 26 -9 27 17 21 15 -3 50 -31 79 -63z m-4393 -18 c-31 -38 -64 -73 -73 -79 -9 -6 -134 -79 -278 -162 l-261 -150 -31 58 -31 58 270 156 c236 135 280 157 343 169 127 25 126 26 61 -50z m230 59 c2 -4 -2 -16 -10 -27 -13 -18 -14 -18 -14 8 0 25 13 36 24 19z m104 -22 c3 -21 2 -22 -12 -11 -19 16 -21 44 -3 39 6 -3 14 -15 15 -28z m3583 -7 c-79 -98 -101 -114 -359 -262 -145 -83 -267 -151 -272 -151 -5 0 -22 23 -38 52 -28 48 -29 53 -14 64 9 6 132 77 273 158 228 131 263 148 330 160 116 22 115 22 80 -21z m196 0 c-16 -16 -17 -16 -17 3 0 26 11 37 24 24 7 -7 5 -16 -7 -27z m113 4 c0 -20 0 -20 -14 -2 -8 11 -12 23 -9 28 8 13 23 -3 23 -26z m251 18 c78 -15 102 -26 356 -172 l273 -155 -28 -50 c-15 -28 -32 -52 -38 -54 -6 -3 -131 64 -277 149 -256 147 -269 156 -328 225 -33 40 -56 72 -51 72 6 0 47 -7 93 -15z m-4200 -8 c-1 -4 -1 -14 -1 -23 0 -8 -4 -12 -10 -9 -13 8 -13 48 1 43 6 -2 10 -7 10 -11z m240 -43 c18 -18 31 -36 28 -38 -6 -6 -139 73 -139 83 0 20 80 -13 111 -45z m3653 22 c-6 -16 -8 -17 -16 -2 -11 19 0 42 13 29 6 -6 7 -18 3 -27z m-3984 -3 c0 -18 -17 -48 -47 -85 -25 -32 -48 -56 -50 -54 -2 2 8 35 22 73 23 61 41 84 73 92 1 1 2 -11 2 -26z m237 -63 c13 -34 22 -64 20 -66 -2 -2 -24 21 -49 52 -34 41 -44 62 -40 80 4 23 6 24 25 11 11 -7 31 -42 44 -77z m210 84 c-3 -3 -12 -4 -19 -1 -8 3 -5 6 6 6 11 1 17 -2 13 -5z m3397 -109 c-26 -30 -49 -53 -51 -52 -8 9 50 134 70 151 22 18 22 18 25 -13 3 -25 -6 -42 -44 -86z m277 48 c40 -93 36 -103 -14 -44 -32 38 -47 64 -47 83 0 26 2 28 21 18 11 -6 29 -32 40 -57z m-3634 51 c-3 -3 -12 -4 -19 -1 -8 3 -5 6 6 6 11 1 17 -2 13 -5z m-869 -10 c-4 -3 -114 -68 -246 -144 l-241 -138 -24 62 c-24 59 -42 126 -35 126 2 1 122 23 268 49 300 55 285 53 278 45z m428 -114 l-25 -65 0 74 c-1 58 3 79 17 94 17 19 17 19 25 -10 6 -21 2 -45 -17 -93z m104 1 c0 -41 -2 -72 -5 -70 -2 3 -16 35 -30 72 -20 54 -23 72 -14 94 l10 28 19 -25 c15 -19 20 -42 20 -99z m322 89 c131 -31 136 -33 336 -147 111 -64 205 -120 208 -124 11 -18 -98 -188 -159 -248 l-35 -33 -167 199 c-93 109 -175 206 -184 217 -16 18 -15 18 14 3 17 -8 124 -70 240 -136 115 -67 214 -121 220 -121 18 1 -23 26 -276 172 -209 120 -256 151 -295 195 -25 29 -43 53 -40 53 2 0 65 -14 138 -30z m372 -25 c137 -24 250 -46 253 -48 10 -10 -11 -37 -26 -33 -9 3 -126 30 -261 61 -135 31 -249 60 -253 65 -5 4 2 6 15 3 13 -2 135 -24 272 -48z m2662 48 c-4 -4 -113 -69 -244 -144 -152 -87 -239 -132 -243 -125 -15 26 -61 167 -57 172 5 4 502 99 542 103 5 1 6 -2 2 -6z m454 -39 c0 -12 -11 -50 -25 -85 l-24 -64 -1 75 c0 54 5 82 16 99 13 18 18 20 25 10 5 -8 9 -24 9 -35z m80 -72 c0 -41 -2 -73 -4 -71 -3 2 -15 34 -28 70 -19 51 -22 72 -15 94 l10 29 18 -23 c15 -18 19 -40 19 -99z m694 63 c137 -24 251 -47 254 -49 7 -8 -51 -168 -63 -172 -10 -4 -456 245 -480 268 -6 6 -1 7 15 4 14 -4 137 -26 274 -51z m-4379 -32 c38 -22 98 -86 253 -268 231 -273 220 -237 102 -327 -89 -68 -245 -143 -365 -174 -86 -23 -122 -27 -250 -28 -245 -2 -409 47 -613 182 -11 7 28 60 158 213 210 249 205 243 190 204 -63 -164 -180 -487 -180 -497 0 -31 24 27 120 289 101 274 106 283 165 354 l60 71 3 -89 3 -90 -107 -289 c-58 -159 -108 -293 -111 -298 -3 -5 0 -7 7 -4 6 2 55 121 108 265 l97 262 3 -284 c1 -179 6 -285 12 -285 6 0 10 116 10 319 0 316 0 319 25 387 14 38 28 76 31 84 3 8 21 -26 40 -79 l34 -93 0 -311 c0 -171 2 -308 5 -306 2 3 5 130 5 283 1 153 5 274 9 270 5 -5 48 -119 96 -254 80 -225 105 -284 105 -252 0 6 -46 136 -101 289 l-102 278 -1 97 c-1 54 1 98 4 97 8 0 106 -121 117 -144 6 -11 54 -141 108 -290 89 -246 115 -309 115 -278 0 6 -36 111 -81 234 -45 123 -87 241 -95 262 -7 20 -12 37 -11 37 1 0 83 -97 182 -215 166 -197 195 -228 195 -207 0 4 -90 113 -199 242 -209 247 -198 229 -259 399 -4 11 4 9 29 -6 19 -12 57 -34 84 -50z m1038 57 c65 0 87 -11 67 -35 -11 -14 -10 -17 8 -22 25 -6 27 -14 11 -30 -14 -14 -3 -33 17 -33 11 0 13 -6 9 -20 -5 -15 -2 -20 13 -20 15 0 18 -5 14 -26 -4 -21 -9 -24 -28 -20 -12 3 -64 15 -116 27 -51 11 -98 22 -105 24 -8 3 -8 21 4 72 20 93 21 96 39 89 9 -3 39 -6 67 -6z m2839 -47 c58 -35 90 -67 244 -249 97 -115 189 -223 204 -240 l27 -30 -40 -35 c-196 -167 -443 -259 -692 -259 -164 0 -322 39 -480 117 -79 40 -177 107 -217 150 l-27 28 100 120 c299 356 303 360 379 404 40 23 75 39 78 37 6 -7 -44 -144 -64 -174 -9 -13 -99 -122 -201 -243 -101 -121 -183 -224 -181 -229 2 -6 84 87 183 205 98 118 180 213 182 212 1 -2 -40 -117 -92 -257 -52 -140 -95 -259 -95 -265 0 -31 30 40 122 291 100 269 107 284 164 353 l59 72 3 -93 3 -93 -106 -285 c-58 -156 -104 -289 -102 -295 5 -13 17 16 118 288 l84 229 3 -281 c1 -176 6 -281 12 -281 6 0 10 115 10 314 l0 315 31 83 c16 45 32 84 33 86 2 1 17 -38 35 -87 l31 -90 0 -311 c0 -200 4 -310 10 -310 6 0 10 101 10 283 l1 282 94 -259 c52 -142 96 -261 99 -264 19 -19 3 33 -90 288 l-104 285 3 98 2 98 58 -70 c55 -67 62 -82 162 -357 57 -158 107 -289 110 -292 18 -18 3 30 -81 262 -52 142 -93 260 -91 262 1 2 83 -91 180 -206 98 -116 183 -210 189 -210 13 0 25 -15 -206 258 -174 207 -191 230 -222 309 -19 48 -34 88 -34 90 0 4 16 -4 102 -54z m-4312 43 c0 -3 -14 -42 -30 -87 -28 -76 -44 -98 -199 -283 -93 -111 -184 -218 -203 -240 l-34 -39 -59 50 c-59 49 -175 182 -175 199 0 7 448 270 483 283 5 2 -72 -94 -173 -213 -100 -120 -180 -220 -177 -223 7 -6 12 0 237 267 153 182 180 210 244 247 68 40 86 48 86 39z m961 -92 c106 -25 195 -46 196 -48 6 -6 -40 -106 -49 -106 -7 0 -332 184 -347 196 -8 7 7 4 200 -42z m2697 -53 c-13 -16 -95 -114 -182 -218 l-160 -190 -54 61 c-79 89 -80 92 -35 119 141 84 439 255 446 256 5 0 -2 -12 -15 -28z m999 -97 c120 -70 230 -132 245 -138 l27 -12 -61 -77 c-33 -42 -64 -77 -68 -77 -4 0 -43 42 -86 93 -43 50 -125 147 -182 215 -57 67 -101 122 -99 122 3 0 104 -57 224 -126z m-3017 36 c0 -5 -5 -10 -11 -10 -5 0 -7 5 -4 10 3 6 8 10 11 10 2 0 4 -4 4 -10z" style="opacity: 0.25;"/>
  </g>
</svg>